<?xml version="1.0" encoding="UTF-8" standalone="no"?>
<!-- Created with Inkscape (http://www.inkscape.org/) -->
<svg id="svg68105" xmlns:rdf="http://www.w3.org/1999/02/22-rdf-syntax-ns#" xmlns="http://www.w3.org/2000/svg" height="6" width="195" version="1.1" xmlns:cc="http://creativecommons.org/ns#" xmlns:dc="http://purl.org/dc/elements/1.1/">
 <defs id="defs68107">
  <clipPath id="clipPath50135" clipPathUnits="userSpaceOnUse">
   <path id="path50137" d="m0,4600.1,1280,0v-4600.1h-1280v4600.1z"/>
  </clipPath>
 </defs>
 <metadata id="metadata68110">
  <rdf:RDF>
   <cc:Work rdf:about="">
    <dc:format>image/svg+xml</dc:format>
    <dc:type rdf:resource="http://purl.org/dc/dcmitype/StillImage"/>
    <dc:title/>
   </cc:Work>
  </rdf:RDF>
 </metadata>
 <g id="layer1" transform="translate(0,-1046.3622)">
  <g id="g50131" fill="#007391" transform="matrix(1.25,0,0,-1.25,-231.66712,5224.0564)">
   <g id="g50133" fill="#007391" clip-path="url(#clipPath50135)">
    <g id="g50139" fill="#007391" transform="translate(250.4447,3341.7644)">
     <path id="path50141" fill-rule="nonzero" fill="#007391" d="m0,0c9.544,0,19.646-0.103,29.749-0.103,16.279,0,32.557-0.051,47.149-0.307,7.297-0.154,14.595-1.077,14.595-1.846,0-1.948-41.536-1.743-61.183-1.897-14.592-0.154-30.31-0.256-45.464-0.256-21.892,0-49.957,0.102-49.957,2.153,0,1.436,14.595,2.359,29.749,2.359,12.91,0,22.452-0.103,35.362-0.103"/>
    </g>
   </g>
  </g>
 </g>
</svg>
