<?xml version="1.0" encoding="UTF-8" standalone="no"?>
<!-- Created with Inkscape (http://www.inkscape.org/) -->
<svg id="svg85270" xmlns:rdf="http://www.w3.org/1999/02/22-rdf-syntax-ns#" xmlns="http://www.w3.org/2000/svg" height="34" width="46" version="1.1" xmlns:cc="http://creativecommons.org/ns#" xmlns:dc="http://purl.org/dc/elements/1.1/">
 <defs id="defs85272">
  <clipPath id="clipPath13301-7" clipPathUnits="userSpaceOnUse">
   <path id="path13303-2" d="m0,2372.6,1280,0v-2372.6h-1280v2372.6z"/>
  </clipPath>
 </defs>
 <metadata id="metadata85275">
  <rdf:RDF>
   <cc:Work rdf:about="">
    <dc:format>image/svg+xml</dc:format>
    <dc:type rdf:resource="http://purl.org/dc/dcmitype/StillImage"/>
    <dc:title/>
   </cc:Work>
  </rdf:RDF>
 </metadata>
 <g id="layer9" display="none">
  <rect id="rect85343" fill-rule="nonzero" height="34.286" width="47.5" y="0.42857" x="-1.0714" fill="#000000"/>
 </g>
 <g id="layer1" transform="translate(0,-1018.3622)">
  <g id="g13297" transform="matrix(1.1148649,0,0,-1.1148649,-1317.0699,3597.576)">
   <g id="g13299" clip-path="url(#clipPath13301-7)">
    <g id="g13305" transform="translate(1199.0773,2311.9116)">
     <path id="path13307" d="m0,0c2.255,0,4.642-0.145,7.029-0.145,3.846,0,7.692-0.071,11.139-0.432,1.724-0.216,3.449-1.515,3.449-2.596,0-2.741-9.814-2.452-14.456-2.669-3.447-0.216-7.161-0.36-10.741-0.36-5.173,0-11.803,0.144-11.803,3.029,0,2.019,3.448,3.317,7.028,3.317,3.051,0,5.305-0.144,8.355-0.144" fill-rule="nonzero" fill="#000"/>
    </g>
    <g id="g13309" transform="translate(1199.0773,2301.7422)">
     <path id="path13311" d="m0,0c2.255,0,4.642-0.144,7.029-0.144,3.846,0,7.692-0.072,11.139-0.433,1.724-0.216,3.449-1.515,3.449-2.596,0-2.741-9.814-2.452-14.456-2.669-3.447-0.216-7.161-0.36-10.741-0.36-5.173,0-11.803,0.144-11.803,3.029,0,2.019,3.448,3.317,7.028,3.317,3.051,0,5.305-0.144,8.355-0.144" fill-rule="nonzero" fill="#000"/>
    </g>
    <g id="g13313" transform="translate(1199.0773,2290.7253)">
     <path id="path13315" d="m0,0c2.255,0,4.642-0.144,7.029-0.144,3.846,0,7.692-0.072,11.139-0.433,1.724-0.216,3.449-1.515,3.449-2.596,0-2.741-9.814-2.452-14.456-2.669-3.447-0.216-7.161-0.36-10.741-0.36-5.173,0-11.803,0.144-11.803,3.029,0,2.019,3.448,3.317,7.028,3.317,3.051,0,5.305-0.144,8.355-0.144" fill-rule="nonzero" fill="#000"/>
    </g>
   </g>
  </g>
 </g>
</svg>
