<?xml version="1.0" encoding="utf-8"?>
<!-- Generator: Adobe Illustrator 18.1.1, SVG Export Plug-In . SVG Version: 6.00 Build 0)  -->
<svg version="1.0" id="Capa_1" xmlns="http://www.w3.org/2000/svg" xmlns:xlink="http://www.w3.org/1999/xlink" x="0px" y="0px"
	 viewBox="0 0 172.5 69" enable-background="new 0 0 172.5 69" xml:space="preserve">
<g>
	<defs>
		<rect id="SVGID_3_" x="-1434.4" y="-86.3" width="1284.9" height="459.8"/>
	</defs>
	<clipPath id="SVGID_2_">
		<use xlink:href="#SVGID_3_"  overflow="visible"/>
	</clipPath>
</g>
<g>
	<path fill="#3DA88F" d="M166.1,33.5c-1-13.7-13-24.3-25.5-26c-0.2,0-0.4,0-0.6-0.1V7H31.4v0.3C21.9,7.6,14.6,13.2,11.6,23
		c-1.2,4-1.7,8.2-2.5,12.4c0.3,16.7,13.6,29.3,29.5,27h96.8c2.5,0.4,5,0.4,7.7,0C157.7,60,167.2,48.3,166.1,33.5z"/>
	<g>
		<g>
			<path fill="#FFFFFF" d="M42.9,44.1c-0.2,0-0.4,0-0.5,0s-0.4,0-0.6,0h-0.5c-0.4,0-0.7,0.1-1.1,0.1h-0.7c-0.1,0-0.3,0-0.4,0H39
				c-1.3-0.2-2.6-0.9-2.6-2.3v-0.6l0-0.1v-0.9c0-0.9,0.2-1.7,0.2-2.5v-0.5l0-0.1v-0.6l0-0.2v-0.1c0-0.2,0-0.4,0-0.6v-0.2
				c0-0.3,0-0.6,0-0.9l0-0.3v-0.1c0-0.2,0-0.4,0-0.6l0-1.1c0-0.4,0-0.7,0-1.1v-1c0-0.4,0.1-0.7,0.1-1c0-0.3,0.1-0.6,0.1-0.9
				c0-0.4-0.1-0.8-0.1-1.2c0-0.5,0.1-0.9,0.2-1.3c0-0.1,0-0.2,0-0.3c0.1-0.9,0.8-1.9,1.5-2.2c0.5-0.2,1-0.3,1.4-0.5
				c0.3-0.1,0.6-0.1,0.9-0.1h3.3c0.2,0,0.5,0,0.7,0c1.4,0.1,2.4,0.2,3.3,0.7c0.4,0.2,0.6,0.4,0.8,0.8c0,0.1,0.1,0.1,0.1,0.2
				c0,0.1,0,0.3,0,0.4V25c0,0.2-0.1,0.3-0.2,0.5c-0.4,0.7-1.4,0.9-2.6,0.9h-2.5c-0.6,0-1.1,0-1.6,0.1h-0.1c-0.2,0-0.4,0-0.6,0h-0.2
				c-0.1,0-0.6-0.1-0.9-0.1c-0.1,0-0.3,0-0.3,0c-0.2,0.2-0.3,0.7-0.3,1.6v0.3c0,0.2,0,0.4,0,0.6c0,0.1,0.1,0.3,0.1,0.4h0.1
				c0.2,0,0.4,0,0.6,0h0.1l0.9,0h0.2c0.6,0,1.1,0,1.6,0.1c1,0,2,0.5,2,1.4c0,1.6-1.4,2-2.8,2.1H43l-0.1,0h-0.2c0,0-0.1,0-0.2,0h0
				c-0.4,0-0.8,0.1-1.2,0.1h-0.6c-0.3,0-0.5,0.1-0.8,0.1c0,0-0.1,0-0.1,0c0,0,0,0,0,0.1c0,0.1-0.1,0.3-0.1,0.4c0,0.3,0,0.5,0,0.9V35
				c0,0.4,0,0.8,0,1.2c0,0.3,0,0.6,0,1c0,0.9,0,2.2,0.5,2.6c0,0,0,0.1,0.1,0.1c0.1,0,0.1,0,0.2,0c0.6,0,1.2,0.1,2,0.1h0.7l0.7,0
				c0.4,0,0.9,0,1.3,0c1.1,0,2.4,0.3,2.4,1.5c0,1.3-1,2.4-2.3,2.4c-0.1,0-0.2,0-0.3,0h-0.2c-0.4,0-0.9,0-1.3,0H42.9z"/>
			<path fill="#FFFFFF" d="M51.8,32.3v-0.1c0-0.7,0-1.4,0-2.2v-1.1c0.1-1.1,0.2-2.3,0.6-3.1c0.3-0.7,0.6-1.4,1.4-1.6h0.4
				c0.5,0,0.8,0.3,1.2,0.4c1.9,1.2,2.9,2.8,4.3,4.4c0.5,0.6,0.9,1.2,1.5,1.8c0.3,0.3,0.5,0.7,0.8,1c0.1,0.2,0.3,0.3,0.4,0.5l0.3,0.5
				c0,0.1,0.1,0.1,0.1,0.2c0-0.2,0-0.4,0.1-0.6c0.3-1.6,0.2-2.3,0.5-3.9c0.4-2,0.4-6.4,2.7-6.4h0.4c0.8,0.1,1.3,0.9,1.3,1.7v0.2
				c0,0.4,0,0.8-0.1,1.2c-0.3,1.6-0.6,3.5-0.8,5.2c-0.1,1-0.3,2.1-0.3,3.1c0,0.3,0,0.7,0,1c-0.1,2.2-0.1,4.3-0.2,6.5
				c0,1.4-0.3,2.9-1.2,3.4c-0.1,0-0.2,0.1-0.3,0.1c0,0,0,0-0.1,0c-0.1,0-0.2,0-0.3,0c-0.1,0-0.1,0-0.2,0c-0.3,0-0.6-0.3-0.8-0.5
				c-0.2-0.3-0.5-0.6-0.7-0.9c-0.4-0.5-0.7-1.2-1-1.7c-0.8-1.1-1.3-2.5-2-3.7c-0.2-0.3-0.4-0.6-0.6-0.9c-0.7-1.3-1.3-2.5-2.1-3.6
				c-0.5-0.7-0.9-1.4-1.4-2c0,0,0,0-0.1,0c0,0.6-0.1,1.3-0.1,1.9c0,0.4,0,0.8,0,1.3v0.5c0,0.8,0.1,1.6,0.1,2.5c0,0.2,0,0.4,0,0.6
				c0,0.3,0,0.7,0,1c-0.1,0.8,0,2.7-0.1,3.2c-0.2,1.2-0.4,2.1-1.2,2.6c-0.1,0.1-0.3,0.1-0.5,0.1H54c-1.2,0-1.6-1.8-1.7-2.9
				c-0.1-0.8-0.1-1.6-0.1-2.4c0-0.3-0.1-0.5-0.1-0.8c0-0.3,0-0.5,0-0.8c0-0.3,0-0.6,0-0.9c0-0.3-0.1-0.5-0.1-0.7
				C51.9,35.2,51.8,33.8,51.8,32.3z"/>
			<path fill="#FFFFFF" d="M86.9,23.3c0,1.2-0.2,2.3-0.5,3.3c-1.2,3.1-2,6.8-3,9.7c-0.4,1-0.6,2.1-0.9,3.1l-0.3,1.1l-0.3,1
				c-0.1,0.3-0.2,0.6-0.3,0.9c-0.1,0.3-0.4,0.5-0.5,0.8c-0.3,0.5-0.5,0.9-0.9,1.2c-0.1,0-0.3,0.1-0.4,0.1c-0.1,0-0.2,0-0.3,0h-0.1
				c-0.6,0-1.3-0.3-1.6-0.7c-0.3-0.5-0.6-1-0.9-1.5c-0.3-0.5-0.6-1-1-1.4c-0.3-0.4-0.5-0.8-0.7-1.3c-0.5-0.8-1.1-1.8-1.4-2.7
				c-0.4-1.3-1-2.6-1.3-4c-0.6-1.6-1.2-3.2-1.8-4.9C70.1,27.5,70,27,70,26.6v-0.2c0-0.5,0.3-1,0.6-1.2l0.5-0.3
				c0.3-0.1,0.6-0.3,0.9-0.3c0.1,0,0.3,0,0.4,0.1c0.8,0.2,0.9,1.1,1.3,1.7c0.3,0.5,0.5,1.2,0.8,1.7c0.3,0.6,0.3,1.2,0.5,1.8
				c0.1,0.8,0.5,1.4,0.8,2.1c0.3,0.6,0.5,1.3,0.8,1.8c0.3,0.6,0.6,1.2,0.9,1.7c0.1,0.3,0.4,0.5,0.4,0.8c0.3,0.7,0.5,1.2,0.8,1.8
				c0.1,0.2,0.2,0.4,0.3,0.5c0.4-1,0.6-2.1,1-3.1c0.2-0.6,0.4-1.2,0.6-1.8c0.1-0.3,0.2-0.6,0.3-0.9c0.3-0.7,0.5-1.4,0.8-2.1
				c0.8-2.1,1.5-4.3,2.3-6.3c0.3-0.6,0.6-1.1,0.8-1.6c0.3-0.5,0.5-0.9,1.2-0.9C86.7,21.9,86.9,22.5,86.9,23.3z"/>
			<path fill="#FFFFFF" d="M89,20.7c0-0.7,0.3-1.4,0.6-1.7c0.3-0.3,1.7-0.9,2.2-0.9H92c0.4,0.1,0.9,0.1,1.1,0.5
				c0.2,0.4,0.4,0.7,0.4,1.3c0,1.3-0.9,2.5-2.2,2.5H91C90,22.2,89,21.8,89,20.7z M89.3,43.4c0-0.3-0.1-0.7-0.1-1c0-1.7,0-3.3,0-5.1
				c0-0.7,0-1.3,0.1-2c0-0.7,0-1.4,0-2.1c0-0.3,0-0.7,0-1v-1c-0.1-0.6-0.1-1.2-0.1-1.9c0-0.7,0-1.4,0.2-2.1c0.1-1,0.1-1.9,1.2-2
				c0.1,0,0.2,0,0.3,0h0c0.5,0,0.8,0.5,1,0.8v0c0.3,0.4,0.5,0.9,0.5,1.5v0.3c0,0.2,0,0.5,0,0.7c-0.1,0.5-0.2,1-0.2,1.6v0.4
				c0,0.3,0,0.4,0,0.7c-0.2,3.3-0.2,6.9-0.2,10.2c0,0.3,0,0.6,0,0.9v0.1c0,0.8,0,1.6-0.4,2.2c-0.2,0.3-0.4,0.7-0.9,0.7
				C89.8,45.1,89.3,44.2,89.3,43.4z"/>
			<path fill="#FFFFFF" d="M110.9,46.3L110.9,46.3c-1.6,0-2-1.6-2.2-2.8c-0.1-0.7-0.3-1.3-0.3-2c-0.2-1.4-0.7-2.7-0.9-4
				c-0.1-0.4-0.1-0.7-0.5-0.8c-1.2-0.2-2.2-0.4-3.6-0.5h-0.5c-0.4,0-0.9,0-1.3,0c-0.7,0.1-1,0.2-1.5,0.5c-0.5,0.8-0.9,1.6-1.3,2.5
				C98.5,40,98,41,97.9,42.1v0.1c-0.1,0.5-0.2,1-0.3,1.6c-0.1,0.9-0.6,1.9-1.7,1.9h-0.1c-1,0-1.3-0.9-1.4-1.7c0-0.2,0-0.4,0-0.6
				c0-1.4,0.7-2.6,1.1-3.9c0.6-1.7,1.6-4,2.3-5.7c0.3-0.8,0.7-1.6,1-2.5c0.3-0.8,0.7-1.6,1-2.4l0.4-1.1h0c0.1-0.4,0.4-0.8,0.5-1.2
				c0.5-1.3,1.7-5.6,3.5-5.6h0.1c1.9,0.1,2.2,2.9,2.7,4.2c0.3,0.5,0.4,1.1,0.7,1.7l0.1,0.4c0.4,0.9,0.7,2,1,3
				c0.3,0.7,0.3,1.6,0.6,2.2c0.3,0.5,0.3,1.3,0.6,1.8c0.4,0.8,0.4,2,0.7,2.9c0.2,0.8,0.3,1.6,0.5,2.2c0.4,0.8,0.6,2,0.8,2.9
				c0.1,0.3,0.1,0.6,0.1,1v1.1C112.2,45.4,111.8,46.3,110.9,46.3z M106,32.3c0-0.1,0-0.2,0-0.3c0-0.6-0.3-1.1-0.5-1.6
				c-0.4-0.9-0.7-1.5-1.2-2.2c-0.1-0.1-0.3-0.2-0.5-0.2c-0.3,0-1.1,2.8-1.3,3.1c-0.1,0.4-0.3,0.7-0.3,1v0.1c0.4,0,0.9,0.1,1.4,0.1
				h0.7c0.4,0,0.8,0,1.3,0H106z"/>
			<path fill="#FFFFFF" d="M115.1,39.9c0-2.1-0.1-4.1-0.2-6.3c0-0.2,0-0.4,0-0.6v-0.7l0-0.4v-1.4c0-0.3,0-0.5,0-0.8
				c0-0.1,0-0.3,0-0.4c0-0.3,0-0.5,0-0.8v-0.1c0-0.3,0-0.7,0-1c0-0.2,0-0.3,0-0.5c0-0.2,0-0.4,0-0.7c0-1.1,0.1-2.9,0.5-3.7
				c0.3-0.4,0.7-0.7,1.2-0.8c0.5-0.3,2.2-0.1,3.1-0.3c0.2,0,0.4-0.1,0.6-0.1h1.5c0.2,0,0.3,0,0.5,0c0.4,0,0.7,0,1,0.1h0.1
				c2.1,0.3,3.8,1.1,4.2,3.1c0,0.2,0.1,0.4,0.1,0.5c0,0.3,0,0.7,0,1l0,0.1c-0.1,1.6-0.5,3-1.2,4c-0.3,0.3-0.4,0.6-0.7,0.9
				c-0.1,0.2-0.3,0.3-0.4,0.5c-0.1,0.1-0.2,0.2-0.3,0.3c0.2,0.5,0.4,0.9,0.6,1.4c0.2,0.3,0.2,0.6,0.4,0.9l0.7,1.3
				c0.3,0.6,0.5,1.1,0.8,1.7c0.1,0.3,0.3,0.5,0.4,0.8c0.5,0.8,1,1.7,1.3,2.8c0.1,0.2,0.1,0.5,0.1,0.7c0,0.2,0,0.4,0,0.7v0.3
				c0,0.2,0,0.3-0.1,0.5v0.1c-0.1,0.5-0.2,0.9-0.5,1.1c-0.3,0.3-0.7,0.5-1.2,0.5c-0.3,0-0.6-0.1-0.8-0.3c-0.4-0.2-0.7-0.5-0.9-0.9
				c-0.2-0.3-0.3-0.7-0.5-1c-0.1-0.2-0.3-0.6-0.4-0.8c-0.2-0.5-0.3-1.1-0.5-1.6c-0.3-0.6-0.6-1.2-0.8-1.9c-0.1-0.3-0.2-0.6-0.4-0.9
				c-0.3-0.5-0.7-1-0.9-1.6c-0.3-0.5-0.5-0.9-0.9-1.4c-0.1-0.1-0.2-0.3-0.4-0.5c0,0-0.1-0.1-0.1-0.1c-0.1,0-0.2,0.1-0.3,0.1
				c-0.1,0-0.2,0-0.3,0c-0.3,0.1-0.7,0.1-1,0.2l-0.5,0.1c-0.1,0-0.6,0-0.8,0v0.1c0,0.1,0,0.3,0,0.4c0,2.3,0.1,4.7,0.1,6.9
				c0,0.1,0,0.3,0,0.4v0.1c0,1.3-0.2,2.2-0.8,2.9c-0.1,0.1-0.4,0.3-0.7,0.3c-0.1,0-0.1,0-0.2,0c-1.3-0.4-1.4-2.2-1.4-3.8
				C115.1,41.1,115.1,40.5,115.1,39.9z M118.1,31.1L118.1,31.1L118.1,31.1c0.3,0.1,0.5,0.1,0.7,0.1h0.2c1.1-0.2,2.1-0.4,3-0.7
				c1.3-0.5,2.5-1.3,2.5-3.1v0c0-0.8-0.4-1.3-0.8-1.7c-0.4-0.3-1-0.4-1.5-0.5c-0.4-0.1-0.8-0.1-1.2-0.1h-1.2c-0.5,0-0.9,0.2-1.3,0.4
				v0.2c0,0.4,0,0.8-0.1,1.2c0,0.3,0,0.6,0,0.9c0,0.3,0,0.4,0,0.7l0,0.4V29C118.3,29.7,118.2,30.4,118.1,31.1z"/>
		</g>
	</g>
</g>
</svg>
