<?xml version="1.0" encoding="UTF-8" standalone="no"?>
<!-- Created with Inkscape (http://www.inkscape.org/) -->

<svg
   xmlns:dc="http://purl.org/dc/elements/1.1/"
   xmlns:cc="http://creativecommons.org/ns#"
   xmlns:rdf="http://www.w3.org/1999/02/22-rdf-syntax-ns#"
   xmlns:svg="http://www.w3.org/2000/svg"
   xmlns="http://www.w3.org/2000/svg"
   xmlns:sodipodi="http://sodipodi.sourceforge.net/DTD/sodipodi-0.dtd"
   xmlns:inkscape="http://www.inkscape.org/namespaces/inkscape"
   width="114"
   height="6"
   id="svg9344"
   version="1.1"
   inkscape:version="0.48.4 r9939"
   sodipodi:docname="New document 2">
  <defs
     id="defs9346" />
  <sodipodi:namedview
     id="base"
     pagecolor="#ffffff"
     bordercolor="#666666"
     borderopacity="1.0"
     inkscape:pageopacity="0.0"
     inkscape:pageshadow="2"
     inkscape:zoom="2.7719298"
     inkscape:cx="57"
     inkscape:cy="3"
     inkscape:document-units="px"
     inkscape:current-layer="layer1"
     showgrid="false"
     inkscape:window-width="449"
     inkscape:window-height="409"
     inkscape:window-x="464"
     inkscape:window-y="185"
     inkscape:window-maximized="0" />
  <metadata
     id="metadata9349">
    <rdf:RDF>
      <cc:Work
         rdf:about="">
        <dc:format>image/svg+xml</dc:format>
        <dc:type
           rdf:resource="http://purl.org/dc/dcmitype/StillImage" />
        <dc:title></dc:title>
      </cc:Work>
    </rdf:RDF>
  </metadata>
  <g
     inkscape:label="Layer 1"
     inkscape:groupmode="layer"
     id="layer1"
     transform="translate(0,-1046.3622)">
    <g
       id="g3087"
       transform="matrix(1.25,0,0,-1.25,18.4575,1046.7779)">
      <path
         d="m 0,0 c 2.089,0 60.858,-0.134 63.069,-0.134 3.563,0 7.126,-0.066 10.32,-0.4 1.597,-0.201 2.862,-0.11 2.862,-1.112 0,-2.539 -9.091,-2.271 -13.391,-2.472 -3.194,-0.2 -63.192,-0.334 -66.509,-0.334 -4.792,0 -10.934,0.134 -10.934,2.806 0,1.871 3.527,1.78 6.843,1.78 C -4.914,0.134 -2.826,0 0,0"
         style="fill:#e2452d;fill-opacity:1;fill-rule:nonzero;stroke:none"
         id="path3089"
         inkscape:connector-curvature="0" />
    </g>
  </g>
</svg>
